<svg width="35" height="35" viewBox="0 0 35 35" fill="none" xmlns="http://www.w3.org/2000/svg">
<g clip-path="url(#clip0_1_2714)">
<path d="M33.8174 3.80873C33.6673 3.70093 33.4719 3.67926 33.3018 3.75143L4.28367 15.4618L0.846153 16.8883L11.2331 21.0935H11.2446V21.0992L14.0232 30.7986C14.0792 30.9939 14.2344 31.1449 14.4311 31.1956C14.6278 31.2462 14.8367 31.1889 14.98 31.045L20.7664 25.1268L28.5752 28.1976C28.8971 28.3292 29.2615 28.3054 29.5636 28.1332C29.8655 27.9609 30.0715 27.6593 30.1221 27.3153L34.0638 4.40452C34.1145 4.17393 34.0162 3.93613 33.8174 3.80873ZM16.9908 23.5914L17.0023 23.5513L17.0195 23.557L16.9908 23.5914Z" fill="white"/>
<path d="M20.7665 25.1268L14.9801 31.045C15.0475 30.9716 15.0966 30.8832 15.1233 30.7872L16.991 23.5914L17.0196 23.557L19.5061 24.5997L20.6176 25.0695L20.7665 25.1268Z" fill="white"/>
<path d="M33.8596 3.83948L17.0194 23.5569L17.0022 23.5512L16.9907 23.5913L15.123 30.787C15.0963 30.8831 15.0472 30.9714 14.9797 31.0448C14.8364 31.1888 14.6276 31.2461 14.4309 31.1955C14.2342 31.1448 14.079 30.9937 14.023 30.7985L11.2443 21.099V21.0933H11.2386V21.0876L33.8596 3.83948Z" fill="#E2FFFC"/>
</g>
<defs>
<clipPath id="clip0_1_2714">
<rect width="33.2308" height="33.2308" fill="white" transform="translate(0.846191 0.846191)"/>
</clipPath>
</defs>
</svg>
